<mxfile host="app.diagrams.net" agent="Mozilla/5.0 (Windows NT 10.0; Win64; x64) AppleWebKit/537.36 (KHTML, like Gecko) Chrome/140.0.0.0 Safari/537.36" version="28.2.3">
  <diagram name="Trang-1" id="W3B2K-PrgU7G14BdT-sq">
    <mxGraphModel dx="786" dy="451" grid="1" gridSize="10" guides="1" tooltips="1" connect="1" arrows="1" fold="1" page="1" pageScale="1" pageWidth="827" pageHeight="1169" math="0" shadow="0">
      <root>
        <mxCell id="0" />
        <mxCell id="1" parent="0" />
        <mxCell id="Tui8f5x_TFB0Xlh08zxA-1" value="Internet" style="rounded=0;whiteSpace=wrap;html=1;" vertex="1" parent="1">
          <mxGeometry x="60" y="20" width="120" height="60" as="geometry" />
        </mxCell>
        <mxCell id="Tui8f5x_TFB0Xlh08zxA-2" value="Network Router" style="rounded=0;whiteSpace=wrap;html=1;" vertex="1" parent="1">
          <mxGeometry x="220" y="140" width="120" height="60" as="geometry" />
        </mxCell>
        <mxCell id="Tui8f5x_TFB0Xlh08zxA-3" value="Wifi router" style="rounded=0;whiteSpace=wrap;html=1;" vertex="1" parent="1">
          <mxGeometry x="220" y="270" width="120" height="60" as="geometry" />
        </mxCell>
        <mxCell id="Tui8f5x_TFB0Xlh08zxA-4" value="Wifi router" style="rounded=0;whiteSpace=wrap;html=1;" vertex="1" parent="1">
          <mxGeometry x="440" y="270" width="120" height="60" as="geometry" />
        </mxCell>
        <mxCell id="Tui8f5x_TFB0Xlh08zxA-5" value="Sever" style="rounded=0;whiteSpace=wrap;html=1;" vertex="1" parent="1">
          <mxGeometry x="440" y="60" width="120" height="60" as="geometry" />
        </mxCell>
        <mxCell id="Tui8f5x_TFB0Xlh08zxA-6" value="Client" style="rounded=0;whiteSpace=wrap;html=1;" vertex="1" parent="1">
          <mxGeometry x="650" y="130" width="120" height="60" as="geometry" />
        </mxCell>
        <mxCell id="Tui8f5x_TFB0Xlh08zxA-7" value="Client" style="rounded=0;whiteSpace=wrap;html=1;" vertex="1" parent="1">
          <mxGeometry x="650" y="210" width="120" height="60" as="geometry" />
        </mxCell>
        <mxCell id="Tui8f5x_TFB0Xlh08zxA-8" value="Client" style="rounded=0;whiteSpace=wrap;html=1;" vertex="1" parent="1">
          <mxGeometry x="650" y="290" width="120" height="60" as="geometry" />
        </mxCell>
        <mxCell id="Tui8f5x_TFB0Xlh08zxA-9" value="Client" style="rounded=0;whiteSpace=wrap;html=1;" vertex="1" parent="1">
          <mxGeometry x="650" y="370" width="120" height="60" as="geometry" />
        </mxCell>
        <mxCell id="Tui8f5x_TFB0Xlh08zxA-11" value="Client" style="rounded=0;whiteSpace=wrap;html=1;" vertex="1" parent="1">
          <mxGeometry x="650" y="460" width="120" height="60" as="geometry" />
        </mxCell>
        <mxCell id="Tui8f5x_TFB0Xlh08zxA-12" value="Máy in" style="rounded=0;whiteSpace=wrap;html=1;" vertex="1" parent="1">
          <mxGeometry x="10" y="270" width="120" height="60" as="geometry" />
        </mxCell>
        <mxCell id="Tui8f5x_TFB0Xlh08zxA-13" value="Máy photo" style="rounded=0;whiteSpace=wrap;html=1;" vertex="1" parent="1">
          <mxGeometry x="70" y="420" width="120" height="60" as="geometry" />
        </mxCell>
        <mxCell id="Tui8f5x_TFB0Xlh08zxA-14" value="" style="endArrow=classic;html=1;rounded=0;exitX=1;exitY=0.5;exitDx=0;exitDy=0;entryX=0.5;entryY=0;entryDx=0;entryDy=0;" edge="1" parent="1" source="Tui8f5x_TFB0Xlh08zxA-1" target="Tui8f5x_TFB0Xlh08zxA-2">
          <mxGeometry width="50" height="50" relative="1" as="geometry">
            <mxPoint x="240" y="80" as="sourcePoint" />
            <mxPoint x="290" y="30" as="targetPoint" />
            <Array as="points">
              <mxPoint x="280" y="50" />
            </Array>
          </mxGeometry>
        </mxCell>
        <mxCell id="Tui8f5x_TFB0Xlh08zxA-15" value="" style="endArrow=classic;html=1;rounded=0;exitX=0.5;exitY=1;exitDx=0;exitDy=0;entryX=0.5;entryY=0;entryDx=0;entryDy=0;" edge="1" parent="1" source="Tui8f5x_TFB0Xlh08zxA-2" target="Tui8f5x_TFB0Xlh08zxA-3">
          <mxGeometry width="50" height="50" relative="1" as="geometry">
            <mxPoint x="340" y="420" as="sourcePoint" />
            <mxPoint x="390" y="370" as="targetPoint" />
          </mxGeometry>
        </mxCell>
        <mxCell id="Tui8f5x_TFB0Xlh08zxA-16" value="" style="endArrow=classic;html=1;rounded=0;exitX=1;exitY=0.5;exitDx=0;exitDy=0;entryX=0;entryY=0.5;entryDx=0;entryDy=0;" edge="1" parent="1" source="Tui8f5x_TFB0Xlh08zxA-3" target="Tui8f5x_TFB0Xlh08zxA-4">
          <mxGeometry width="50" height="50" relative="1" as="geometry">
            <mxPoint x="390" y="280" as="sourcePoint" />
            <mxPoint x="440" y="230" as="targetPoint" />
          </mxGeometry>
        </mxCell>
        <mxCell id="Tui8f5x_TFB0Xlh08zxA-17" value="" style="endArrow=classic;html=1;rounded=0;exitX=0;exitY=0.5;exitDx=0;exitDy=0;entryX=1;entryY=0.5;entryDx=0;entryDy=0;" edge="1" parent="1" source="Tui8f5x_TFB0Xlh08zxA-3" target="Tui8f5x_TFB0Xlh08zxA-12">
          <mxGeometry width="50" height="50" relative="1" as="geometry">
            <mxPoint x="180" y="260" as="sourcePoint" />
            <mxPoint x="230" y="210" as="targetPoint" />
          </mxGeometry>
        </mxCell>
        <mxCell id="Tui8f5x_TFB0Xlh08zxA-18" value="" style="endArrow=classic;html=1;rounded=0;exitX=0.5;exitY=1;exitDx=0;exitDy=0;entryX=1;entryY=0.5;entryDx=0;entryDy=0;" edge="1" parent="1" source="Tui8f5x_TFB0Xlh08zxA-3" target="Tui8f5x_TFB0Xlh08zxA-13">
          <mxGeometry width="50" height="50" relative="1" as="geometry">
            <mxPoint x="320" y="470" as="sourcePoint" />
            <mxPoint x="370" y="420" as="targetPoint" />
            <Array as="points">
              <mxPoint x="280" y="450" />
            </Array>
          </mxGeometry>
        </mxCell>
        <mxCell id="Tui8f5x_TFB0Xlh08zxA-19" value="" style="endArrow=classic;html=1;rounded=0;exitX=0.5;exitY=0;exitDx=0;exitDy=0;entryX=0.5;entryY=1;entryDx=0;entryDy=0;" edge="1" parent="1" source="Tui8f5x_TFB0Xlh08zxA-4" target="Tui8f5x_TFB0Xlh08zxA-5">
          <mxGeometry width="50" height="50" relative="1" as="geometry">
            <mxPoint x="510" y="240" as="sourcePoint" />
            <mxPoint x="560" y="190" as="targetPoint" />
          </mxGeometry>
        </mxCell>
        <mxCell id="Tui8f5x_TFB0Xlh08zxA-20" value="" style="endArrow=classic;html=1;rounded=0;entryX=0;entryY=0.5;entryDx=0;entryDy=0;" edge="1" parent="1" target="Tui8f5x_TFB0Xlh08zxA-6">
          <mxGeometry width="50" height="50" relative="1" as="geometry">
            <mxPoint x="561" y="300" as="sourcePoint" />
            <mxPoint x="590" y="210" as="targetPoint" />
          </mxGeometry>
        </mxCell>
        <mxCell id="Tui8f5x_TFB0Xlh08zxA-21" value="" style="endArrow=classic;html=1;rounded=0;entryX=0;entryY=0.5;entryDx=0;entryDy=0;exitX=1;exitY=0.5;exitDx=0;exitDy=0;" edge="1" parent="1" source="Tui8f5x_TFB0Xlh08zxA-4" target="Tui8f5x_TFB0Xlh08zxA-7">
          <mxGeometry width="50" height="50" relative="1" as="geometry">
            <mxPoint x="560" y="290" as="sourcePoint" />
            <mxPoint x="540" y="380" as="targetPoint" />
          </mxGeometry>
        </mxCell>
        <mxCell id="Tui8f5x_TFB0Xlh08zxA-22" value="" style="endArrow=classic;html=1;rounded=0;entryX=0;entryY=0.5;entryDx=0;entryDy=0;" edge="1" parent="1" target="Tui8f5x_TFB0Xlh08zxA-8">
          <mxGeometry width="50" height="50" relative="1" as="geometry">
            <mxPoint x="560" y="300" as="sourcePoint" />
            <mxPoint x="560" y="430" as="targetPoint" />
          </mxGeometry>
        </mxCell>
        <mxCell id="Tui8f5x_TFB0Xlh08zxA-23" value="" style="endArrow=classic;html=1;rounded=0;exitX=1;exitY=0.5;exitDx=0;exitDy=0;entryX=0;entryY=0.5;entryDx=0;entryDy=0;" edge="1" parent="1" source="Tui8f5x_TFB0Xlh08zxA-4" target="Tui8f5x_TFB0Xlh08zxA-9">
          <mxGeometry width="50" height="50" relative="1" as="geometry">
            <mxPoint x="460" y="490" as="sourcePoint" />
            <mxPoint x="510" y="440" as="targetPoint" />
          </mxGeometry>
        </mxCell>
        <mxCell id="Tui8f5x_TFB0Xlh08zxA-24" value="" style="endArrow=classic;html=1;rounded=0;entryX=0;entryY=0.5;entryDx=0;entryDy=0;" edge="1" parent="1" target="Tui8f5x_TFB0Xlh08zxA-11">
          <mxGeometry width="50" height="50" relative="1" as="geometry">
            <mxPoint x="560" y="300" as="sourcePoint" />
            <mxPoint x="550" y="400" as="targetPoint" />
          </mxGeometry>
        </mxCell>
      </root>
    </mxGraphModel>
  </diagram>
</mxfile>
